<?xml version="1.0" standalone="no"?>
<!DOCTYPE svg PUBLIC "-//W3C//DTD SVG 1.1//EN" "http://www.w3.org/Graphics/SVG/1.1/DTD/svg11.dtd" >
<svg xmlns="http://www.w3.org/2000/svg" xmlns:xlink="http://www.w3.org/1999/xlink" version="1.1">
<metadata>
Created by FontForge 20170731 at Tue Oct  7 15:27:53 2014
 By Aleksey,,,
Copyright (c) 2014 by Daniel Hernandez &#38; Miguel Hernandez. All rights reserved.
</metadata>
<defs>
<font id="Texta-Bold" horiz-adv-x="596" >
  <font-face 
    font-family="Texta-Bold"
    font-weight="400"
    font-stretch="normal"
    units-per-em="1000"
    panose-1="2 0 0 0 0 0 0 0 0 0"
    ascent="767"
    descent="-233"
    x-height="420"
    cap-height="600"
    bbox="-26 -192 983 813"
    underline-thickness="50"
    underline-position="-150"
    unicode-range="U+000D-25CA"
  />
<missing-glyph horiz-adv-x="564" 
 />
    <glyph glyph-name=".notdef" horiz-adv-x="564" 
 />
    <glyph glyph-name=".null" horiz-adv-x="0" 
 />
    <glyph glyph-name="nonmarkingreturn" horiz-adv-x="333" 
 />
    <glyph glyph-name="NUL" horiz-adv-x="0" 
 />
    <glyph glyph-name="NUL" horiz-adv-x="0" 
 />
    <glyph glyph-name="CR" unicode="&#xd;" horiz-adv-x="105" 
 />
    <glyph glyph-name="space" unicode=" " horiz-adv-x="214" 
 />
    <glyph glyph-name="exclam" unicode="!" horiz-adv-x="222" 
d="M168 600l-24 -415h-67l-25 415h116zM49 55q0 26 18 44.5t44 18.5t44.5 -18.5t18.5 -44.5t-18.5 -44.5t-44.5 -18.5t-44 18.5t-18 44.5z" />
    <glyph glyph-name="quotedbl" unicode="&#x22;" horiz-adv-x="329" 
d="M152 684l-46 -209h-59l17 209h88zM301 684l-46 -209h-59l16 209h89z" />
    <glyph glyph-name="numbersign" unicode="#" horiz-adv-x="635" 
d="M520 583l-34 -155h118l-13 -59h-118l-34 -156h116l-13 -59h-116l-34 -154h-63l33 154h-150l-33 -154h-64l34 154h-118l13 59h118l34 156h-116l13 59h116l34 155h62l-34 -155h151l34 155h64zM258 369l-33 -156h150l34 156h-151z" />
    <glyph glyph-name="dollar" unicode="$" horiz-adv-x="519" 
d="M36 61l54 75q57 -47 142 -57v186q-101 31 -146 70.5t-45 106.5q0 73 49.5 118t141.5 52v104h59v-104q56 -4 101 -19t62 -28l16 -13l-54 -81q-46 40 -125 48v-167q104 -30 149.5 -73t45.5 -111q0 -75 -50 -124.5t-145 -56.5v-94h-59v94q-59 4 -108 22.5t-68 34.5zM376 161
q0 29 -18.5 48t-66.5 37v-166q85 12 85 81zM150 446q0 -25 18.5 -42t63.5 -33v148q-82 -11 -82 -73z" />
    <glyph glyph-name="percent" unicode="%" horiz-adv-x="663" 
d="M171 613q61 0 97 -43.5t36 -105.5t-36 -106t-97 -44t-97 44t-36 106t36 105.5t97 43.5zM171 549q-29 0 -44 -22.5t-15 -62.5t15 -62.5t44 -22.5t44 22.5t15 62.5t-15 62.5t-44 22.5zM492 291q61 0 97.5 -43.5t36.5 -106.5q0 -62 -36.5 -105.5t-97.5 -43.5t-97 44t-36 105
q0 63 36 106.5t97 43.5zM492 227q-28 0 -43.5 -23t-15.5 -63q0 -38 15.5 -61t43.5 -23q29 0 44 22.5t15 61.5q0 86 -59 86zM521 600h92l-477 -600h-91z" />
    <glyph glyph-name="ampersand" unicode="&#x26;" horiz-adv-x="614" 
d="M471 299l93 -22q-17 -94 -64 -162l117 -115h-138l-45 45q-72 -55 -166 -55q-108 0 -165.5 47.5t-57.5 122.5q0 57 32 94.5t88 67.5l-13 14q-56 58 -56 126q0 64 47.5 107.5t125.5 43.5t125 -40.5t47 -104.5q0 -61 -33.5 -98.5t-93.5 -69.5l119 -118q27 50 38 117zM267 74
q56 0 105 36l-143 147q-76 -41 -76 -95q0 -39 32.5 -63.5t81.5 -24.5zM195 458q0 -39 48 -87l8 -8q46 22 69.5 43.5t23.5 51.5q0 33 -20 53t-55 20q-34 0 -54 -20t-20 -53z" />
    <glyph glyph-name="quotesingle" unicode="'" horiz-adv-x="181" 
d="M152 684l-45 -209h-60l17 209h88z" />
    <glyph glyph-name="parenleft" unicode="(" horiz-adv-x="275" 
d="M137 287q0 -218 122 -359l-62 -65q-162 172 -162 424q0 255 162 424l62 -65q-122 -141 -122 -359z" />
    <glyph glyph-name="parenright" unicode=")" horiz-adv-x="276" 
d="M138 287q0 218 -122 359l63 65q161 -171 161 -424q0 -249 -161 -424l-63 65q122 141 122 359z" />
    <glyph glyph-name="asterisk" unicode="*" horiz-adv-x="387" 
d="M75 444l89 93l-124 20l24 71l111 -61l-17 127h72l-22 -128l115 62l24 -71l-127 -20l91 -93l-61 -43l-58 115l-58 -115z" />
    <glyph glyph-name="plus" unicode="+" horiz-adv-x="508" 
d="M295 515v-181h176v-80h-176v-173h-82v173h-176v80h176v181h82z" />
    <glyph glyph-name="comma" unicode="," horiz-adv-x="213" 
d="M165 49v-7q0 -63 -34.5 -108t-95.5 -57l-15 53q65 16 73 61q-21 5 -34.5 20.5t-13.5 37.5q0 25 17.5 42.5t42.5 17.5t42.5 -17.5t17.5 -42.5z" />
    <glyph glyph-name="hyphen" unicode="-" horiz-adv-x="388" 
d="M54 189v80h280v-80h-280z" />
    <glyph glyph-name="period" unicode="." horiz-adv-x="210" 
d="M105 -10q-25 0 -42.5 17t-17.5 42t17.5 42.5t42.5 17.5t42.5 -17.5t17.5 -42.5t-17.5 -42t-42.5 -17z" />
    <glyph glyph-name="slash" unicode="/" horiz-adv-x="591" 
d="M122 -111l-101 -1l449 895h99z" />
    <glyph glyph-name="zero" unicode="0" horiz-adv-x="610" 
d="M305 -14q-123 0 -192.5 90t-69.5 223q0 135 69.5 224.5t192.5 89.5q124 0 193.5 -89.5t69.5 -224.5q0 -133 -69.5 -223t-193.5 -90zM305 82q77 0 119 60.5t42 156.5q0 97 -42 158t-119 61q-76 0 -118.5 -61.5t-42.5 -157.5t42.5 -156.5t118.5 -60.5z" />
    <glyph glyph-name="one" unicode="1" horiz-adv-x="313" 
d="M15 512v88h230v-600h-99v512h-131z" />
    <glyph glyph-name="two" unicode="2" horiz-adv-x="506" 
d="M44 0v69l241 242q31 31 42.5 54t11.5 52q0 43 -30.5 72t-80.5 29q-15 0 -29.5 -2.5t-27.5 -8t-23 -10.5t-21 -13l-17 -12q-5 -4 -13.5 -11.5t-9.5 -8.5l-53 79q3 3 9 8.5t25.5 20t41 25t56 19.5t70.5 9q102 0 159 -52.5t57 -133.5q0 -89 -67 -155l-184 -184h262v-88h-419
z" />
    <glyph glyph-name="three" unicode="3" horiz-adv-x="507" 
d="M236 278h-80v63l159 171h-265v88h399v-76l-158 -167q167 -13 167 -171q0 -85 -56.5 -141.5t-166.5 -56.5q-62 0 -112 21t-69 41l-20 21l54 72q6 -7 17.5 -17.5t48.5 -28.5t77 -18q61 0 92 29t31 74q0 96 -118 96z" />
    <glyph glyph-name="four" unicode="4" horiz-adv-x="562" 
d="M22 135v73l326 392h86v-377h99v-88h-99v-135h-99v135h-313zM147 227v-4h188v230l-170 -209z" />
    <glyph glyph-name="five" unicode="5" horiz-adv-x="495" 
d="M425 512h-259l-3 -146q30 6 68 6q114 0 170.5 -50t56.5 -136q0 -89 -58 -143.5t-167 -54.5q-60 0 -110 21t-69 41l-20 21l54 72q2 -3 6 -7t18 -15t29.5 -19.5t40 -15.5t49.5 -7q58 0 90.5 28t32.5 78q0 47 -36 74.5t-105 27.5q-36 0 -69 -6t-47 -10.5t-16 -6.5l-13 10
l9 326h348v-88z" />
    <glyph glyph-name="six" unicode="6" horiz-adv-x="538" 
d="M153 325v-7q52 59 140 59q92 0 149.5 -52t57.5 -134q0 -87 -61.5 -144.5t-155.5 -57.5q-106 0 -172.5 73t-66.5 228q0 151 67.5 235.5t180.5 84.5q58 0 104 -20t63 -40l17 -19l-56 -76q-2 2 -12 11.5t-19 16.5t-23.5 15.5t-33 13t-39.5 4.5q-140 0 -140 -191zM283 293
q-51 0 -84.5 -28t-40.5 -75q23 -110 123 -110q51 0 83 31.5t32 78.5q0 45 -31 74t-82 29z" />
    <glyph glyph-name="seven" unicode="7" horiz-adv-x="455" 
d="M27 512v88h414v-69l-259 -531h-116l256 512h-295z" />
    <glyph glyph-name="eight" unicode="8" horiz-adv-x="530" 
d="M266 -14q-103 0 -162.5 53t-59.5 132q0 96 83 143q-67 46 -67 128q0 74 54 122.5t152 48.5q97 0 151 -48.5t54 -122.5q0 -82 -67 -128q83 -48 83 -143q0 -79 -59.5 -132t-161.5 -53zM383 174q0 43 -32.5 71t-84.5 28q-53 0 -85.5 -28t-32.5 -71q0 -42 32.5 -71t85.5 -29
q52 0 84.5 29t32.5 71zM266 349q48 0 76 25.5t28 62.5t-28 62.5t-76 25.5t-76.5 -25.5t-28.5 -62.5t28 -62.5t77 -25.5z" />
    <glyph glyph-name="nine" unicode="9" horiz-adv-x="536" 
d="M250 80q65 0 101 47.5t32 146.5v7q-51 -59 -140 -59q-92 0 -149.5 52t-57.5 134q0 87 62 144.5t156 57.5q106 0 172 -73t66 -228q0 -152 -64.5 -237t-177.5 -85q-37 0 -69.5 8t-52.5 19.5t-35 23t-21 19.5l-6 8l56 77q2 -2 12 -11.5t19.5 -16.5t23.5 -15.5t33 -13.5
t40 -5zM253 306q50 0 84 28t40 74q-22 111 -122 111q-51 0 -83 -31.5t-32 -78.5q0 -45 31 -74t82 -29z" />
    <glyph glyph-name="colon" unicode=":" horiz-adv-x="226" 
d="M82 21q-12 13 -11.5 30.5t13.5 29.5t30.5 11t29.5 -14t11 -30.5t-14 -29.5t-30.5 -11t-28.5 14zM82 339q-12 13 -11.5 30t13.5 29t30.5 11.5t29.5 -13.5t11 -30.5t-14 -29.5t-30.5 -11t-28.5 14z" />
    <glyph glyph-name="semicolon" unicode=";" horiz-adv-x="239" 
d="M181 49v-7q0 -63 -34.5 -108t-95.5 -57l-15 53q65 16 73 61q-21 5 -34.5 20.5t-13.5 37.5q0 25 17.5 42.5t42.5 17.5t42.5 -17.5t17.5 -42.5zM121 308q-25 0 -42.5 17t-17.5 42t17.5 42.5t42.5 17.5t42.5 -17.5t17.5 -42.5t-17 -42t-43 -17z" />
    <glyph glyph-name="less" unicode="&#x3c;" horiz-adv-x="372" 
d="M36 268v63l272 180v-105l-181 -107l181 -107v-105z" />
    <glyph glyph-name="equal" unicode="=" horiz-adv-x="459" 
d="M58 348v80h344v-80h-344zM58 157v81h344v-81h-344z" />
    <glyph glyph-name="greater" unicode="&#x3e;" horiz-adv-x="372" 
d="M336 331v-63l-272 -181v105l181 107l-181 107v105z" />
    <glyph glyph-name="question" unicode="?" horiz-adv-x="432" 
d="M75 477l-47 80q7 6 19.5 15.5t56 25t91.5 15.5q92 0 147 -43.5t55 -117.5q0 -40 -15.5 -71.5t-38 -52t-45.5 -38.5t-40.5 -39t-19.5 -45l-2 -23h-75v35q0 36 20 67t43.5 49.5t43.5 46t20 56.5q0 36 -27.5 58.5t-73.5 22.5q-29 0 -57 -10t-42 -20zM139 54q0 26 17.5 43.5
t43.5 17.5t43.5 -17.5t17.5 -43.5t-17.5 -44t-43.5 -18t-43.5 18t-17.5 44z" />
    <glyph glyph-name="at" unicode="@" horiz-adv-x="1001" 
d="M746 51q-66 0 -99.5 31.5t-41.5 65.5h-6q-10 -17 -25 -34t-53 -37t-83 -20q-79 0 -128 50.5t-49 135.5q0 113 66 183.5t159 70.5q104 0 136 -83l17 73h79l-28 -242q-3 -30 -3 -43q0 -37 22 -60t59 -23q55 0 90.5 52.5t35.5 143.5q0 67 -25.5 132.5t-72 119.5t-121.5 87.5
t-165 33.5q-179 0 -297 -121t-118 -289q0 -171 120.5 -292t290.5 -121q56 0 109 14t77 29l25 14l24 -51q-9 -7 -27.5 -17.5t-79.5 -27.5t-128 -17q-135 0 -244 65.5t-167.5 172t-58.5 229.5q0 127 58.5 233.5t168 171t247.5 64.5q192 0 321.5 -125t129.5 -303
q0 -115 -59 -190.5t-156 -75.5zM466 147q58 0 96 45t38 109q0 50 -28 78.5t-74 28.5q-54 0 -93 -42t-39 -108q0 -52 27 -81.5t73 -29.5z" />
    <glyph glyph-name="A" unicode="A" 
d="M348 600l246 -600h-104l-49 123h-286l-48 -123h-105l246 600h100zM298 485l-110 -278h220z" />
    <glyph glyph-name="B" unicode="B" horiz-adv-x="602" 
d="M562 171q0 -83 -57.5 -127t-158.5 -44h-272v600h263q100 0 153.5 -42t53.5 -121q0 -44 -22.5 -77.5t-61.5 -50.5v-4q47 -13 74.5 -48t27.5 -86zM356 262h-183v-174h175q48 0 79 23.5t31 64.5q0 37 -29 60.5t-73 25.5zM440 427q0 42 -27.5 63.5t-76.5 21.5h-163v-168h161
q48 0 77 23t29 60z" />
    <glyph glyph-name="C" unicode="C" horiz-adv-x="560" 
d="M484 138l57 -76l-8 -8q-5 -5 -23.5 -18.5t-40 -23.5t-56.5 -18t-74 -8q-135 0 -219 90t-84 223q0 134 84 224t219 90q39 0 74 -7.5t57 -18.5t39 -22.5t25 -18.5l7 -8l-57 -77q-6 6 -17 16t-48.5 26t-77.5 16q-88 0 -145 -63t-57 -157q0 -93 57 -155.5t145 -62.5
q40 0 76 14t51 29z" />
    <glyph glyph-name="D" unicode="D" horiz-adv-x="633" 
d="M595 300q0 -135 -84.5 -217.5t-224.5 -82.5h-212v600h212q140 0 224.5 -82.5t84.5 -217.5zM280 512h-107v-424h107q93 0 153.5 57.5t60.5 154.5q0 99 -60.5 155.5t-153.5 56.5z" />
    <glyph glyph-name="E" unicode="E" horiz-adv-x="540" 
d="M452 346v-84h-279v-174h328v-88h-427v600h427v-88h-328v-166h279z" />
    <glyph glyph-name="F" unicode="F" horiz-adv-x="533" 
d="M452 345v-84h-279v-261h-99v600h429v-88h-330v-167h279z" />
    <glyph glyph-name="G" unicode="G" horiz-adv-x="639" 
d="M506 252v3h-183v84h288v-59q0 -135 -73.5 -214.5t-201.5 -79.5q-136 0 -217.5 89.5t-81.5 223.5t83 224t219 90q66 0 119.5 -19.5t73.5 -38.5l21 -19l-58 -76q-6 7 -18 16.5t-53 26t-85 16.5q-89 0 -144.5 -62.5t-55.5 -157.5q0 -94 54.5 -156t142.5 -62q78 0 124 47
t46 124z" />
    <glyph glyph-name="H" unicode="H" horiz-adv-x="650" 
d="M576 600v-600h-99v255h-304v-255h-99v600h99v-261h304v261h99z" />
    <glyph glyph-name="I" unicode="I" horiz-adv-x="248" 
d="M173 600v-600h-99v600h99z" />
    <glyph glyph-name="J" unicode="J" horiz-adv-x="444" 
d="M15 38l47 78q41 -34 99 -34t86.5 32.5t29.5 103.5v382h99v-401q-1 -98 -54 -155.5t-155 -57.5q-45 0 -84 14.5t-50.5 23t-17.5 14.5z" />
    <glyph glyph-name="K" unicode="K" horiz-adv-x="587" 
d="M173 600v-301l282 301h117v-12l-224 -240l227 -335v-13h-109l-186 275l-107 -114v-161h-99v600h99z" />
    <glyph glyph-name="L" unicode="L" horiz-adv-x="494" 
d="M468 0h-394v600h99v-512h295v-88z" />
    <glyph glyph-name="M" unicode="M" horiz-adv-x="726" 
d="M554 0v418l-173 -226h-36l-172 223v-415h-99v600h76l213 -280l214 280h74l1 -600h-98z" />
    <glyph glyph-name="N" unicode="N" horiz-adv-x="666" 
d="M592 600v-600h-74l-345 426v-426h-99v600h75l344 -424v424h99z" />
    <glyph glyph-name="O" unicode="O" horiz-adv-x="675" 
d="M337 -14q-133 0 -216.5 90t-83.5 223q0 134 83.5 224t216.5 90q134 0 217.5 -90t83.5 -224q0 -133 -83.5 -223t-217.5 -90zM337 82q88 0 144 62t56 155q0 94 -56 156.5t-144 62.5q-87 0 -142.5 -62.5t-55.5 -156.5q0 -93 55.5 -155t142.5 -62z" />
    <glyph glyph-name="P" unicode="P" horiz-adv-x="577" 
d="M74 0v600h247q106 0 168 -54t62 -147q0 -97 -62.5 -151t-169.5 -54h-146v-194h-99zM449 398q0 56 -35.5 85t-97.5 29h-143v-231h144q62 0 97 29t35 88z" />
    <glyph glyph-name="Q" unicode="Q" horiz-adv-x="675" 
d="M337 -14q-133 0 -216.5 90t-83.5 223q0 134 83.5 224t216.5 90q134 0 217.5 -90t83.5 -224q0 -91 -41 -165t-114 -113l78 -134h-110l-58 104q-30 -5 -56 -5zM337 82q88 0 144 62t56 155q0 94 -56 156.5t-144 62.5q-87 0 -142.5 -62.5t-55.5 -156.5q0 -93 55.5 -155
t142.5 -62z" />
    <glyph glyph-name="R" unicode="R" horiz-adv-x="599" 
d="M74 600h247q106 0 168 -54t62 -147q0 -68 -34 -115.5t-93 -69.5v-5l144 -195v-14h-109l-143 198h-143v-198h-99v600zM448 398q0 56 -35 85t-97 29h-143v-226h149q57 0 91.5 28.5t34.5 83.5z" />
    <glyph glyph-name="S" unicode="S" horiz-adv-x="518" 
d="M35 61l54 75q8 -6 22.5 -16t59 -26t88.5 -16q59 0 87.5 22.5t28.5 60.5q0 35 -28 56.5t-108 45.5q-105 31 -152 71t-47 108q0 79 57.5 125t162.5 46q66 0 118.5 -15.5t71.5 -30.5l19 -15l-54 -81q-6 6 -18.5 14t-52.5 22t-84 14q-52 0 -81.5 -19.5t-29.5 -55.5
q0 -30 28 -49t105 -42q109 -31 156 -74t47 -113q0 -80 -57.5 -131t-165.5 -51q-43 0 -82.5 7.5t-64.5 19t-44 22.5t-27 19z" />
    <glyph glyph-name="T" unicode="T" horiz-adv-x="523" 
d="M24 512v88h475v-88h-188v-512h-99v512h-188z" />
    <glyph glyph-name="U" unicode="U" horiz-adv-x="634" 
d="M317 -14q-115 0 -183 74.5t-68 193.5v346h99v-346q0 -77 39.5 -125t112.5 -48q74 0 113 47.5t39 125.5v346h99v-346q0 -120 -67 -194t-184 -74z" />
    <glyph glyph-name="V" unicode="V" 
d="M248 0l-246 600h105l191 -486l192 486h104l-246 -600h-100z" />
    <glyph glyph-name="W" unicode="W" horiz-adv-x="803" 
d="M522 0l-121 432l-120 -432h-77l-190 600h105l122 -425l118 425h83l119 -426l122 426h107l-191 -600h-77z" />
    <glyph glyph-name="X" unicode="X" horiz-adv-x="551" 
d="M534 600l-185 -292l191 -308h-120l-121 206l-24 45l-23 -45l-120 -206h-119l188 308l-183 292h120l117 -196l21 -45l22 45l117 196h119z" />
    <glyph glyph-name="Y" unicode="Y" horiz-adv-x="537" 
d="M291 365l134 235h110l-217 -370v-230h-99v230l-217 370h111l134 -235l22 -49z" />
    <glyph glyph-name="Z" unicode="Z" horiz-adv-x="534" 
d="M30 0v71l339 441h-328v88h460v-73l-333 -439h328v-88h-466z" />
    <glyph glyph-name="bracketleft" unicode="[" horiz-adv-x="326" 
d="M59 -130v830h250v-80h-156v-670h156v-80h-250z" />
    <glyph glyph-name="backslash" unicode="\" horiz-adv-x="375" 
d="M247 -128l-217 926h98l217 -926h-98z" />
    <glyph glyph-name="bracketright" unicode="]" horiz-adv-x="326" 
d="M17 -130v80h155v670h-155v80h250v-830h-250z" />
    <glyph glyph-name="asciicircum" unicode="^" horiz-adv-x="417" 
d="M292 497l-85 127l-86 -127h-77l135 196h57l137 -196h-81z" />
    <glyph glyph-name="underscore" unicode="_" horiz-adv-x="536" 
d="M47 -120v80h442v-80h-442z" />
    <glyph glyph-name="grave" unicode="`" horiz-adv-x="279" 
d="M139 497l-91 134l113 17l45 -151h-67z" />
    <glyph glyph-name="a" unicode="a" horiz-adv-x="464" 
d="M409 259v-259h-68l-12 55h-5q-40 -65 -139 -65q-73 0 -115 37.5t-42 95.5q0 64 49 101t142 37q50 0 96 -14v14q0 88 -109 88q-28 0 -56.5 -7.5t-42.5 -15.5l-14 -8l-34 74q61 38 162 38q93 0 140.5 -45.5t47.5 -125.5zM207 60q45 0 75.5 26.5t32.5 64.5v34q-32 16 -85 16
q-108 0 -108 -72q0 -30 23 -49.5t62 -19.5z" />
    <glyph glyph-name="b" unicode="b" horiz-adv-x="521" 
d="M60 0v605h98v-239h4q1 3 3.5 7t13 15t24 19.5t38 15.5t53.5 7q82 0 137 -61.5t55 -158.5q0 -99 -55 -159.5t-140 -60.5q-31 0 -58 8t-42.5 19t-26.5 22t-15 19l-4 8h-4l-14 -66h-67zM153 210q0 -63 33.5 -101t84.5 -38q50 0 83 39t33 100t-32.5 100t-83.5 39t-84.5 -37.5
t-33.5 -101.5z" />
    <glyph glyph-name="c" unicode="c" horiz-adv-x="409" 
d="M250 -10q-96 0 -156 61.5t-60 157.5q0 97 60 159t156 62q40 0 72.5 -9t45.5 -19l12 -9l-27 -72q-39 28 -96 28q-54 0 -89 -38t-35 -102q0 -65 35 -101.5t89 -36.5q25 0 49 7t36 14l11 7l26 -71q-4 -4 -13 -10.5t-42.5 -17t-73.5 -10.5z" />
    <glyph glyph-name="d" unicode="d" horiz-adv-x="522" 
d="M360 371h4v234h98v-605h-66l-15 62h-4q-1 -3 -4.5 -8t-15.5 -17t-27 -21.5t-41.5 -17.5t-57.5 -8q-85 0 -140.5 60.5t-55.5 159.5q0 97 55 158.5t138 61.5q45 0 78 -15t44 -29zM370 210q0 64 -33.5 101.5t-85.5 37.5q-51 0 -84 -39t-33 -100t33 -100t84 -39t85 38t34 101
z" />
    <glyph glyph-name="e" unicode="e" horiz-adv-x="459" 
d="M373 105l35 -67q-5 -6 -16 -14t-51 -22t-87 -14q-101 0 -160.5 61.5t-59.5 159.5q0 96 56.5 158.5t147.5 62.5q90 0 140.5 -57.5t50.5 -151.5l-1 -26h-298q4 -62 38.5 -94.5t91.5 -32.5q32 0 60 9t40 19zM236 354q-86 0 -102 -94h197q-11 94 -95 94z" />
    <glyph glyph-name="f" unicode="f" horiz-adv-x="322" 
d="M311 343h-117v-343h-98v343h-75v77h75v36q0 73 40 114.5t112 41.5q26 0 50 -5t34 -10l11 -5l-31 -74q-22 11 -54 11q-29 0 -46.5 -18.5t-17.5 -49.5v-41h117v-77z" />
    <glyph glyph-name="g" unicode="g" horiz-adv-x="470" 
d="M445 345h-60v-2q19 -14 19 -66q0 -56 -45 -97t-126 -41q-50 0 -89 18q-24 -13 -24 -33q0 -13 7.5 -20.5t36.5 -14.5t83 -10q113 -5 158.5 -34.5t45.5 -90.5q0 -59 -57.5 -100t-159.5 -41q-104 0 -154 31.5t-50 85.5q0 61 68 96q-63 26 -63 89q0 51 58 80q-30 36 -30 86
q0 64 45.5 105.5t124.5 41.5q34 0 63 -8h149v-75zM247 2q-26 0 -64 4q-59 -23 -59 -68q0 -25 27.5 -41t82.5 -16q59 0 89.5 17.5t30.5 45.5q0 54 -107 58zM233 360q-38 0 -60.5 -22.5t-22.5 -54.5q0 -33 22.5 -55t60.5 -22q39 0 62 22t23 55q0 32 -23 54.5t-62 22.5z" />
    <glyph glyph-name="h" unicode="h" horiz-adv-x="512" 
d="M60 0v605h99v-225h3q41 50 125 50q79 0 124.5 -51.5t45.5 -137.5v-241h-98v231q0 50 -26.5 82.5t-72.5 32.5q-47 0 -74 -32.5t-27 -70.5v-243h-99z" />
    <glyph glyph-name="i" unicode="i" horiz-adv-x="221" 
d="M110 497q-25 0 -42.5 17t-17.5 42t17.5 42t42.5 17q26 0 43.5 -17t17.5 -42t-17.5 -42t-43.5 -17zM61 0v420h98v-420h-98z" />
    <glyph glyph-name="j" unicode="j" horiz-adv-x="221" 
d="M2 -156v82h15q44 0 44 45v449h99v-454q0 -57 -30.5 -89.5t-89.5 -32.5h-38zM110 497q-26 0 -43 17t-17 42t17.5 42t42.5 17q26 0 43.5 -17t17.5 -42t-17.5 -42t-43.5 -17z" />
    <glyph glyph-name="k" unicode="k" horiz-adv-x="456" 
d="M323 420h122l-170 -183l173 -237h-119l-130 176l-41 -44v-132h-98v605h98v-365z" />
    <glyph glyph-name="l" unicode="l" horiz-adv-x="222" 
d="M62 0v605h98v-605h-98z" />
    <glyph glyph-name="m" unicode="m" horiz-adv-x="806" 
d="M60 0v420h64l12 -60h6q47 70 139 70q103 0 149 -76h5q46 76 144 76q81 0 126.5 -51.5t45.5 -137.5v-241h-98v232q0 50 -25.5 82t-72.5 32q-46 0 -71.5 -28t-28.5 -67v-251h-98v242q0 46 -26 75t-73 29q-46 0 -71.5 -28.5t-28.5 -66.5v-251h-98z" />
    <glyph glyph-name="n" unicode="n" horiz-adv-x="513" 
d="M60 0v420h64l12 -60h6q46 70 141 70q81 0 128 -51.5t47 -137.5v-241h-98v232q0 50 -26.5 82t-73.5 32q-46 0 -72.5 -29t-29.5 -66v-251h-98z" />
    <glyph glyph-name="o" unicode="o" horiz-adv-x="499" 
d="M465 208q0 -98 -62 -158t-154 -60q-91 0 -153 60t-62 158q0 99 62 160.5t153 61.5t153.5 -62t62.5 -160zM249 68q52 0 86 38.5t34 102.5t-34.5 103.5t-85.5 39.5t-85.5 -39.5t-34.5 -103.5t34 -102.5t86 -38.5z" />
    <glyph glyph-name="p" unicode="p" horiz-adv-x="521" 
d="M162 49h-4v-205h-98v576h65l14 -60h6l5 8q3 4 15.5 16t27.5 21.5t41.5 17t57.5 7.5q84 0 139.5 -60.5t55.5 -159.5q0 -97 -55 -158.5t-137 -61.5q-46 0 -79.5 15t-43.5 29zM153 210q0 -64 33.5 -101.5t84.5 -37.5t84 39t33 100t-33 100t-84 39t-84.5 -38t-33.5 -101z" />
    <glyph glyph-name="q" unicode="q" horiz-adv-x="522" 
d="M462 420v-576h-98v210h-4q-1 -3 -3.5 -7t-13 -15t-24 -19.5t-38 -15.5t-53.5 -7q-83 0 -138 61.5t-55 158.5q0 99 55.5 159.5t140.5 60.5q32 0 58.5 -8t42 -19t26.5 -22.5t15 -19.5l4 -8h5l14 67h66zM370 210q0 63 -34 101t-85 38t-84 -39t-33 -100t33 -100t84 -39
q52 0 85.5 37.5t33.5 101.5z" />
    <glyph glyph-name="r" unicode="r" horiz-adv-x="296" 
d="M284 421v-82h-23q-43 0 -72.5 -29t-30.5 -74v-236h-98v420h64l12 -67h5q34 68 120 68h23z" />
    <glyph glyph-name="s" unicode="s" horiz-adv-x="418" 
d="M34 39l35 67q61 -41 139 -41t78 48q0 18 -18.5 31t-46.5 19.5t-60 17t-60 23.5t-46.5 39t-18.5 63q0 55 42 89.5t121 34.5q51 0 94.5 -9t62.5 -18l18 -9l-33 -76q-54 36 -132 36q-76 0 -76 -45q0 -17 18.5 -29t46.5 -18t61 -16t61 -23t46.5 -40t18.5 -65q0 -56 -43 -92
t-131 -36q-55 0 -99 12t-61 24z" />
    <glyph glyph-name="t" unicode="t" horiz-adv-x="332" 
d="M15 420h75v128h98v-128h113v-77h-113v-213q0 -56 53 -56q12 0 25 4t20 8l7 4l29 -69q-44 -31 -101 -31q-66 0 -98.5 37t-32.5 101v215h-75v77z" />
    <glyph glyph-name="u" unicode="u" horiz-adv-x="510" 
d="M352 174v246h98v-420h-64l-17 58h-4q-46 -68 -138 -68q-81 0 -126.5 51.5t-45.5 137.5v241h98v-232q0 -52 24.5 -84t71.5 -32q49 0 76 32.5t27 69.5z" />
    <glyph glyph-name="v" unicode="v" horiz-adv-x="459" 
d="M454 420l-190 -420h-69l-190 420h108l106 -273q8 -16 8 -31h5q0 11 8 31l106 273h108z" />
    <glyph glyph-name="w" unicode="w" horiz-adv-x="661" 
d="M651 420l-153 -420h-84l-75 262q-6 16 -6 39h-5q0 -17 -8 -39l-74 -262h-83l-153 420h103l81 -273q7 -23 7 -31h7q0 5 3.5 18.5t3.5 14.5l75 271h83l75 -271q7 -19 7 -33h7q0 9 6 31l83 273h100z" />
    <glyph glyph-name="x" unicode="x" horiz-adv-x="446" 
d="M14 0l148 216l-141 204h112l90 -143h3l90 143h111l-145 -204l153 -216h-112l-97 156h-3l-99 -156h-110z" />
    <glyph glyph-name="y" unicode="y" horiz-adv-x="455" 
d="M448 420l-249 -576h-102l86 184l-177 392h108l108 -273q7 -23 7 -31h5q0 14 7 31l107 273h100z" />
    <glyph glyph-name="z" unicode="z" horiz-adv-x="425" 
d="M390 0h-356v53l229 288h-227v79h354v-48l-223 -293h223v-79z" />
    <glyph glyph-name="braceleft" unicode="{" horiz-adv-x="290" 
d="M15 326h25q61 0 61 86v162q0 131 144 141l14 -82q-32 -6 -44.5 -19t-12.5 -48v-166q0 -89 -61 -110v-9q61 -20 61 -108v-167q0 -35 13 -48.5t44 -17.5l-14 -82q-144 9 -144 140v163q0 87 -61 87h-25v78z" />
    <glyph glyph-name="bar" unicode="|" horiz-adv-x="209" 
d="M150 687v-815h-91v815h91z" />
    <glyph glyph-name="braceright" unicode="}" horiz-adv-x="290" 
d="M251 326h24v-78h-24q-62 0 -62 -87v-163q0 -131 -143 -140l-15 82q32 4 44.5 17.5t12.5 48.5v167q0 88 62 108v9q-62 21 -62 110v166q0 35 -12.5 48t-44.5 19l15 82q143 -10 143 -141v-162q0 -86 62 -86z" />
    <glyph glyph-name="asciitilde" unicode="~" horiz-adv-x="477" 
d="M310 323q20 0 40 6.5t30 12.5l9 6l33 -61q-5 -4 -13.5 -10.5t-37 -17.5t-59.5 -11q-28 0 -71.5 16t-74.5 16q-20 0 -40 -6t-30 -12l-9 -7l-32 60q5 4 13.5 11t37 18t58.5 11q28 0 71.5 -16t74.5 -16z" />
    <glyph glyph-name="uni00A0" unicode="&#xa0;" horiz-adv-x="214" 
 />
    <glyph glyph-name="exclamdown" unicode="&#xa1;" horiz-adv-x="211" 
d="M139 238l24 -415h-116l25 415h67zM43 368q0 27 18.5 45t44.5 18t44 -18t18 -45q0 -26 -18 -44.5t-44 -18.5t-44.5 18.5t-18.5 44.5z" />
    <glyph glyph-name="cent" unicode="&#xa2;" horiz-adv-x="428" 
d="M183 0l11 86q-71 19 -113 75.5t-42 135.5q0 95 59 157t153 64l11 82h51l-11 -86q24 -4 45.5 -12t30.5 -14l9 -6l-26 -73q-28 19 -70 26l-36 -276h10q25 0 49 7t36 14l11 7l25 -72q-5 -4 -14.5 -10t-43 -16.5t-70.5 -10.5h-14l-10 -78h-51zM138 297q0 -89 68 -124l34 261
q-45 -8 -73.5 -45t-28.5 -92z" />
    <glyph glyph-name="sterling" unicode="&#xa3;" horiz-adv-x="505" 
d="M455 88v-88h-396v88h1l-1 1q2 1 6.5 3t14.5 10.5t18 18.5t14.5 27.5t6.5 37.5q0 18 -13 70h-63v72h44q-11 53 -11 88q0 80 59 135.5t162 55.5q32 0 62 -6.5t49 -15.5t33 -18.5t21 -16.5l6 -6l-59 -78q-4 5 -12.5 12.5t-37 20t-59.5 12.5q-56 0 -85 -29.5t-29 -76.5
q0 -34 10 -77h196v-72h-178q10 -40 10 -69q0 -57 -30 -99h261z" />
    <glyph glyph-name="yen" unicode="&#xa5;" horiz-adv-x="592" 
d="M318 365l134 235h110l-177 -301h124v-72h-164v-68h164v-71h-164v-88h-99v88h-162v71h162v68h-162v72h121l-176 301h111l134 -235l22 -49z" />
    <glyph glyph-name="brokenbar" unicode="&#xa6;" horiz-adv-x="218" 
d="M154 330h-90v343h90v-343zM154 -153h-90v343h90v-343z" />
    <glyph glyph-name="section" unicode="&#xa7;" horiz-adv-x="528" 
d="M36 46l47 72q8 -5 22.5 -13t61 -21.5t93.5 -13.5q113 0 113 50q0 26 -24.5 39.5t-100.5 35.5q-81 23 -125 51.5t-44 76.5q0 44 36 67q-61 33 -61 91q0 60 54.5 96t161.5 36q63 0 113.5 -11.5t70.5 -23.5l19 -12l-46 -75q-7 4 -19 11t-53 18t-85 11q-102 0 -102 -48
q0 -24 23.5 -38.5t78.5 -28.5q88 -24 140 -54.5t52 -79.5q0 -45 -34 -74q59 -36 59 -89q0 -57 -56.5 -95t-167.5 -38q-68 0 -124.5 15t-79.5 30zM236 348q-18 4 -42 11q-17 -7 -17 -31q0 -35 105 -65l64 -19q16 13 16 33q0 22 -30.5 37.5t-95.5 33.5z" />
    <glyph glyph-name="dieresis" unicode="&#xa8;" horiz-adv-x="455" 
d="M86 710q0 22 16.5 38.5t37.5 16.5q22 0 38.5 -16.5t16.5 -38.5t-16.5 -38.5t-38.5 -16.5q-21 0 -37.5 16.5t-16.5 38.5zM257 710q0 22 16 38.5t37 16.5q22 0 38 -16.5t16 -38.5t-16 -38.5t-38 -16.5q-21 0 -37 16.5t-16 38.5z" />
    <glyph glyph-name="copyright" unicode="&#xa9;" horiz-adv-x="681" 
d="M341 605q136 0 217.5 -88t81.5 -218t-81.5 -217.5t-217.5 -87.5t-218 88t-82 217q0 130 82 218t218 88zM341 563q-116 0 -185.5 -75.5t-69.5 -188.5q0 -112 69.5 -187.5t185.5 -75.5t186 75.5t70 187.5q0 113 -70 188.5t-186 75.5zM452 424l-34 -51q-24 25 -67 25
t-68.5 -27.5t-25.5 -70.5t25.5 -70t68.5 -27q19 0 36 6t24 12l7 6l34 -50q-4 -4 -11 -10t-34 -16.5t-59 -10.5q-74 0 -117 45.5t-43 114.5t43 115t117 46q32 0 58 -9.5t36 -18.5z" />
    <glyph glyph-name="ordfeminine" unicode="&#xaa;" horiz-adv-x="395" 
d="M34 371q0 49 37.5 77.5t101.5 28.5q66 0 93 -25v10q0 46 -18.5 68t-66.5 22t-92 -22l-22 58q59 26 125 26q79 0 113 -39.5t34 -114.5v-186h-54l-11 36h-5q-26 -44 -111 -44q-54 0 -89 29.5t-35 75.5zM106 374q0 -25 20 -40.5t55 -15.5q37 0 61 17.5t24 40.5
q0 25 -22.5 39t-59.5 14t-57.5 -14.5t-20.5 -40.5z" />
    <glyph glyph-name="guillemotleft" unicode="&#xab;" horiz-adv-x="476" 
d="M36 197v22l124 189h83v-10l-120 -186v-6l120 -188v-10h-83zM233 197v22l124 189h82v-10l-120 -186v-6l120 -188v-10h-82z" />
    <glyph glyph-name="logicalnot" unicode="&#xac;" horiz-adv-x="552" 
d="M44 266v80h447v-346h-82v266h-365z" />
    <glyph glyph-name="registered" unicode="&#xae;" horiz-adv-x="541" 
d="M497 380q0 -99 -62 -166t-165 -67q-102 0 -163.5 67.5t-61.5 165.5q0 99 61 166t164 67t165 -67t62 -166zM452 380q0 82 -50.5 136t-131.5 54t-130.5 -53t-49.5 -137q0 -82 50 -136t130 -54q81 0 131.5 54t50.5 136zM184 485h94q39 0 62.5 -20t23.5 -53q0 -43 -37 -62
l40 -57v-10h-48l-39 56h-51v-56h-45v202zM277 442h-48v-61h48q39 0 39 30q0 31 -39 31z" />
    <glyph glyph-name="macron" unicode="&#xaf;" horiz-adv-x="526" 
d="M121 668v61h295v-61h-295z" />
    <glyph glyph-name="degree" unicode="&#xb0;" horiz-adv-x="293" 
d="M147 672q50 0 82 -31t32 -77t-32 -76.5t-82 -30.5q-51 0 -83 30.5t-32 76.5t32 77t83 31zM147 622q-26 0 -42 -16.5t-16 -41.5q0 -23 16 -39t42 -16t41.5 16t15.5 39q0 25 -15.5 41.5t-41.5 16.5z" />
    <glyph glyph-name="plusminus" unicode="&#xb1;" horiz-adv-x="522" 
d="M304 178h-82v160h-164v80h164v166h82v-166h160v-80h-160v-160zM464 112v-81h-406v81h406z" />
    <glyph glyph-name="twosuperior" unicode="&#xb2;" horiz-adv-x="341" 
d="M50 342v54l132 115q31 27 31 55q0 48 -54 48q-36 0 -78 -35l-36 53q5 5 14 12.5t39.5 20t62.5 12.5q61 0 92 -30.5t31 -76.5q0 -56 -43 -92l-91 -78h141v-58h-241z" />
    <glyph glyph-name="threesuperior" unicode="&#xb3;" horiz-adv-x="328" 
d="M48 609v59h227v-44l-65 -84q80 -15 80 -94q0 -49 -34.5 -80.5t-98.5 -31.5q-75 0 -120 45l36 49q32 -33 82 -33q32 0 48.5 14.5t16.5 36.5q0 47 -58 47h-40v36l63 80h-137z" />
    <glyph glyph-name="acute" unicode="&#xb4;" horiz-adv-x="279" 
d="M219 629l-99 -132h-67l52 145z" />
    <glyph glyph-name="mu" unicode="&#xb5;" horiz-adv-x="510" 
d="M354 174v246h98v-420h-64l-17 58h-4q-46 -68 -138 -68q-43 0 -76 15l2 -133h-98v548h98v-232q0 -52 24.5 -84t71.5 -32q49 0 76 32.5t27 69.5z" />
    <glyph glyph-name="paragraph" unicode="&#xb6;" horiz-adv-x="536" 
d="M370 -82v204h-60q-124 0 -202 64t-78 180q0 113 76.5 174t201.5 61h161v-683h-99z" />
    <glyph glyph-name="periodcentered" unicode="&#xb7;" horiz-adv-x="217" 
d="M46 359q0 26 18.5 45t43.5 19q26 0 44.5 -19t18.5 -45t-18.5 -44.5t-44.5 -18.5t-44 18.5t-18 44.5z" />
    <glyph glyph-name="cedilla" unicode="&#xb8;" horiz-adv-x="206" 
d="M73 -69l-17 20l26 52h48l-14 -34q28 0 46 -17t18 -47q0 -33 -22 -53t-61 -20q-24 0 -44 7.5t-28 14.5l-8 8l24 36q28 -20 53 -20q38 0 38 29q0 27 -36 27z" />
    <glyph glyph-name="onesuperior" unicode="&#xb9;" horiz-adv-x="215" 
d="M23 609v59h133v-326h-67v267h-66z" />
    <glyph glyph-name="ordmasculine" unicode="&#xba;" horiz-adv-x="399" 
d="M200 613q72 0 118 -47.5t46 -126.5q0 -76 -46.5 -123t-117.5 -47q-72 0 -118.5 47t-46.5 123q0 79 46.5 126.5t118.5 47.5zM200 550q-43 0 -68 -30t-25 -80q0 -49 25 -78.5t68 -29.5q42 0 67 29.5t25 78.5q0 50 -25 80t-67 30z" />
    <glyph glyph-name="guillemotright" unicode="&#xbb;" horiz-adv-x="476" 
d="M244 219v-22l-124 -189h-83v10l121 188v6l-121 186v10h83zM440 219v-22l-124 -189h-83v10l121 188v6l-121 186v10h83z" />
    <glyph glyph-name="onequarter" unicode="&#xbc;" horiz-adv-x="637" 
d="M112 0h-81l471 600h81zM314 80v42l179 204h50v-191h59v-55h-59v-80h-63v80h-166zM43 541v59h134v-326h-67v267h-67zM419 160q-11 -13 -26 -28l39 3h48v98h-1z" />
    <glyph glyph-name="onehalf" unicode="&#xbd;" horiz-adv-x="695" 
d="M111 0h-80l470 600h82zM417 54v-54h241v58h-141l91 78q43 36 43 92q0 46 -31 76.5t-91 30.5q-32 0 -61 -11.5t-42 -22.5l-13 -11l36 -53q39 35 77 35q55 0 55 -48q0 -28 -31 -55zM47 541v59h133v-326h-67v267h-66z" />
    <glyph glyph-name="threequarters" unicode="&#xbe;" horiz-adv-x="706" 
d="M187 0h-81l470 600h82zM387 77v42l178 204h51v-191h55v-55h-55v-77h-65v77h-164zM45 541v59h227v-44l-65 -84q79 -15 79 -94q0 -49 -34 -80.5t-98 -31.5q-75 0 -120 45l36 49q32 -33 82 -33q32 0 48.5 14.5t16.5 36.5q0 47 -58 47h-40v36l63 80h-137zM491 158
q-11 -14 -26 -29l39 3h47v99h-1z" />
    <glyph glyph-name="questiondown" unicode="&#xbf;" horiz-adv-x="424" 
d="M353 -52l48 -80q-7 -6 -19.5 -15.5t-56 -25t-91.5 -15.5q-92 0 -147.5 43.5t-55.5 117.5q0 40 15.5 72t38 52.5t45.5 38t40.5 38.5t19.5 45l2 24h76v-36q0 -36 -20 -67t-43.5 -49.5t-43.5 -46t-20 -56.5q0 -36 27 -58t73 -22q29 0 57 10t42 20zM289 371q0 -25 -17.5 -43
t-43.5 -18t-43.5 18t-17.5 43q0 26 17.5 44t43.5 18t43.5 -18t17.5 -44z" />
    <glyph glyph-name="Agrave" unicode="&#xc0;" 
d="M348 600l246 -600h-104l-49 123h-286l-48 -123h-105l246 600h100zM298 485l-110 -278h220zM262 635l-91 134l113 17l45 -151h-67z" />
    <glyph glyph-name="Aacute" unicode="&#xc1;" 
d="M348 600l246 -600h-104l-49 123h-286l-48 -123h-105l246 600h100zM298 485l-110 -278h220zM432 767l-99 -132h-67l52 145z" />
    <glyph glyph-name="Acircumflex" unicode="&#xc2;" 
d="M348 600l246 -600h-104l-49 123h-286l-48 -123h-105l246 600h100zM298 485l-110 -278h220zM348 655l-49 62l-50 -62h-76l87 121h77l88 -121h-77z" />
    <glyph glyph-name="Atilde" unicode="&#xc3;" 
d="M348 600l246 -600h-104l-49 123h-286l-48 -123h-105l246 600h100zM298 485l-110 -278h220zM376 657q-33 0 -76.5 25t-60.5 25q-28 0 -39 -36l-4 -16l-69 7l5 30q18 90 95 90q33 0 76 -25t61 -25q31 0 40 37l3 15l69 -6l-5 -30q-6 -41 -30 -66t-65 -25z" />
    <glyph glyph-name="Adieresis" unicode="&#xc4;" 
d="M348 600l246 -600h-104l-49 123h-286l-48 -123h-105l246 600h100zM298 485l-110 -278h220zM158 710q0 22 16.5 38.5t37.5 16.5q22 0 38.5 -16.5t16.5 -38.5t-16.5 -38.5t-38.5 -16.5q-21 0 -37.5 16.5t-16.5 38.5zM329 710q0 22 16 38.5t37 16.5q22 0 38 -16.5t16 -38.5
t-16 -38.5t-38 -16.5q-21 0 -37 16.5t-16 38.5z" />
    <glyph glyph-name="Aring" unicode="&#xc5;" 
d="M348 600l246 -600h-104l-49 123h-286l-48 -123h-105l246 600h100zM298 485l-110 -278h220zM190 704q0 40 29.5 64t79.5 24q49 0 78 -24.5t29 -63.5q0 -40 -29 -64.5t-78 -24.5q-50 0 -79.5 24.5t-29.5 64.5zM349 704q0 39 -50 39q-52 0 -52 -39t52 -39q50 0 50 39z" />
    <glyph glyph-name="AE" unicode="&#xc6;" horiz-adv-x="887" 
d="M-10 0l411 600h448v-88h-335v-168h278v-84h-278v-172h335v-88h-434v126h-223l-83 -126h-119zM410 454l-161 -243h166v243h-5z" />
    <glyph glyph-name="Ccedilla" unicode="&#xc7;" horiz-adv-x="560" 
d="M293 -69l-17 20l19 38q-117 15 -188 102t-71 208q0 134 84 224t219 90q39 0 74 -7.5t57 -18.5t39 -22.5t25 -18.5l7 -8l-57 -77q-6 6 -17 16t-48.5 26t-77.5 16q-88 0 -145 -63t-57 -157q0 -93 57 -155.5t145 -62.5q40 0 76 14t51 29l16 14l57 -76l-8 -8q-5 -5 -23 -18
t-39 -23t-55.5 -18t-72.5 -9l-7 -17q28 0 46 -17t18 -47q0 -33 -22 -53t-61 -20q-24 0 -44 7.5t-28 14.5l-8 8l24 36q28 -20 53 -20q38 0 38 29q0 27 -36 27z" />
    <glyph glyph-name="Egrave" unicode="&#xc8;" horiz-adv-x="540" 
d="M452 346v-84h-279v-174h328v-88h-427v600h427v-88h-328v-166h279zM267 635l-91 134l113 17l45 -151h-67z" />
    <glyph glyph-name="Eacute" unicode="&#xc9;" horiz-adv-x="540" 
d="M423 767l-99 -132h-67l52 145zM452 346v-84h-279v-174h328v-88h-427v600h427v-88h-328v-166h279z" />
    <glyph glyph-name="Ecircumflex" unicode="&#xca;" horiz-adv-x="540" 
d="M346 655l-49 62l-50 -62h-76l87 121h77l88 -121h-77zM452 346v-84h-279v-174h328v-88h-427v600h427v-88h-328v-166h279z" />
    <glyph glyph-name="Edieresis" unicode="&#xcb;" horiz-adv-x="540" 
d="M155 710q0 22 16.5 38.5t37.5 16.5q22 0 38.5 -16.5t16.5 -38.5t-16.5 -38.5t-38.5 -16.5q-21 0 -37.5 16.5t-16.5 38.5zM326 710q0 22 16 38.5t37 16.5q22 0 38 -16.5t16 -38.5t-16 -38.5t-38 -16.5q-21 0 -37 16.5t-16 38.5zM452 346v-84h-279v-174h328v-88h-427v600
h427v-88h-328v-166h279z" />
    <glyph glyph-name="Igrave" unicode="&#xcc;" horiz-adv-x="248" 
d="M173 600v-600h-99v600h99zM87 635l-91 134l113 17l45 -151h-67z" />
    <glyph glyph-name="Iacute" unicode="&#xcd;" horiz-adv-x="248" 
d="M173 600v-600h-99v600h99zM257 767l-99 -132h-67l52 145z" />
    <glyph glyph-name="Icircumflex" unicode="&#xce;" horiz-adv-x="248" 
d="M173 600v-600h-99v600h99zM175 655l-49 62l-50 -62h-76l87 121h77l88 -121h-77z" />
    <glyph glyph-name="Idieresis" unicode="&#xcf;" horiz-adv-x="248" 
d="M173 600v-600h-99v600h99zM-15 710q0 22 16.5 38.5t37.5 16.5q22 0 38.5 -16.5t16.5 -38.5t-16.5 -38.5t-38.5 -16.5q-21 0 -37.5 16.5t-16.5 38.5zM156 710q0 22 16 38.5t37 16.5q22 0 38 -16.5t16 -38.5t-16 -38.5t-38 -16.5q-21 0 -37 16.5t-16 38.5z" />
    <glyph glyph-name="Eth" unicode="&#xd0;" horiz-adv-x="634" 
d="M21 259v89h54v252h212q140 0 224.5 -82.5t84.5 -217.5t-84.5 -217.5t-224.5 -82.5h-212v259h-54zM281 512h-107v-164h154v-89h-154v-171h107q93 0 153.5 57.5t60.5 154.5q0 99 -60.5 155.5t-153.5 56.5z" />
    <glyph glyph-name="Ntilde" unicode="&#xd1;" horiz-adv-x="666" 
d="M592 600v-600h-74l-345 426v-426h-99v600h75l344 -424v424h99zM411 658q-33 0 -76.5 25t-60.5 25q-28 0 -39 -36l-4 -16l-69 7l5 30q18 90 95 90q32 0 76 -25t61 -25q31 0 40 37l3 15l69 -6l-5 -30q-6 -41 -30 -66t-65 -25z" />
    <glyph glyph-name="Ograve" unicode="&#xd2;" horiz-adv-x="675" 
d="M337 -14q-133 0 -216.5 90t-83.5 223q0 134 83.5 224t216.5 90q134 0 217.5 -90t83.5 -224q0 -133 -83.5 -223t-217.5 -90zM337 82q88 0 144 62t56 155q0 94 -56 156.5t-144 62.5q-87 0 -142.5 -62.5t-55.5 -156.5q0 -93 55.5 -155t142.5 -62zM304 655l-91 134l113 17
l45 -151h-67z" />
    <glyph glyph-name="Oacute" unicode="&#xd3;" horiz-adv-x="675" 
d="M466 787l-99 -132h-67l52 145zM337 -14q-133 0 -216.5 90t-83.5 223q0 134 83.5 224t216.5 90q134 0 217.5 -90t83.5 -224q0 -133 -83.5 -223t-217.5 -90zM337 82q88 0 144 62t56 155q0 94 -56 156.5t-144 62.5q-87 0 -142.5 -62.5t-55.5 -156.5q0 -93 55.5 -155
t142.5 -62z" />
    <glyph glyph-name="Ocircumflex" unicode="&#xd4;" horiz-adv-x="675" 
d="M388 655l-49 62l-50 -62h-76l87 121h77l88 -121h-77zM337 -14q-133 0 -216.5 90t-83.5 223q0 134 83.5 224t216.5 90q134 0 217.5 -90t83.5 -224q0 -133 -83.5 -223t-217.5 -90zM337 82q88 0 144 62t56 155q0 94 -56 156.5t-144 62.5q-87 0 -142.5 -62.5t-55.5 -156.5
q0 -93 55.5 -155t142.5 -62z" />
    <glyph glyph-name="Otilde" unicode="&#xd5;" horiz-adv-x="675" 
d="M337 -14q-133 0 -216.5 90t-83.5 223q0 134 83.5 224t216.5 90q134 0 217.5 -90t83.5 -224q0 -133 -83.5 -223t-217.5 -90zM337 82q88 0 144 62t56 155q0 94 -56 156.5t-144 62.5q-87 0 -142.5 -62.5t-55.5 -156.5q0 -93 55.5 -155t142.5 -62zM412 657q-33 0 -76.5 25
t-60.5 25q-28 0 -39 -36l-4 -16l-69 7l5 30q18 90 95 90q33 0 76 -25t61 -25q31 0 40 37l3 15l69 -6l-5 -30q-6 -41 -30 -66t-65 -25z" />
    <glyph glyph-name="Odieresis" unicode="&#xd6;" horiz-adv-x="675" 
d="M198 710q0 22 16.5 38.5t37.5 16.5q22 0 38.5 -16.5t16.5 -38.5t-16.5 -38.5t-38.5 -16.5q-21 0 -37.5 16.5t-16.5 38.5zM369 710q0 22 16 38.5t37 16.5q22 0 38 -16.5t16 -38.5t-16 -38.5t-38 -16.5q-21 0 -37 16.5t-16 38.5zM337 -14q-133 0 -216.5 90t-83.5 223
q0 134 83.5 224t216.5 90q134 0 217.5 -90t83.5 -224q0 -133 -83.5 -223t-217.5 -90zM337 82q88 0 144 62t56 155q0 94 -56 156.5t-144 62.5q-87 0 -142.5 -62.5t-55.5 -156.5q0 -93 55.5 -155t142.5 -62z" />
    <glyph glyph-name="multiply" unicode="&#xd7;" horiz-adv-x="502" 
d="M107 95l-56 56l145 149l-145 150l56 56l144 -149l145 149l56 -56l-146 -150l146 -149l-56 -56l-145 149z" />
    <glyph glyph-name="Oslash" unicode="&#xd8;" horiz-adv-x="685" 
d="M342 -14q-111 0 -190 65l-50 -51h-105l103 106q-58 83 -58 193q0 134 83.5 224t216.5 90q109 0 189 -64l50 51h104l-102 -105q60 -83 60 -196q0 -133 -83.5 -223t-217.5 -90zM342 82q88 0 144 62t56 155q0 68 -31 122l-290 -298q52 -41 121 -41zM144 299q0 -68 29 -118
l289 297q-53 40 -120 40q-87 0 -142.5 -62.5t-55.5 -156.5z" />
    <glyph glyph-name="Ugrave" unicode="&#xd9;" horiz-adv-x="634" 
d="M317 -14q-115 0 -183 74.5t-68 193.5v346h99v-346q0 -77 39.5 -125t112.5 -48q74 0 113 47.5t39 125.5v346h99v-346q0 -120 -67 -194t-184 -74zM282 635l-91 134l113 17l45 -151h-67z" />
    <glyph glyph-name="Uacute" unicode="&#xda;" horiz-adv-x="634" 
d="M446 767l-99 -132h-67l52 145zM317 -14q-115 0 -183 74.5t-68 193.5v346h99v-346q0 -77 39.5 -125t112.5 -48q74 0 113 47.5t39 125.5v346h99v-346q0 -120 -67 -194t-184 -74z" />
    <glyph glyph-name="Ucircumflex" unicode="&#xdb;" horiz-adv-x="634" 
d="M368 634l-49 62l-50 -62h-76l87 121h77l88 -121h-77zM317 -14q-115 0 -183 74.5t-68 193.5v346h99v-346q0 -77 39.5 -125t112.5 -48q74 0 113 47.5t39 125.5v346h99v-346q0 -120 -67 -194t-184 -74z" />
    <glyph glyph-name="Udieresis" unicode="&#xdc;" horiz-adv-x="634" 
d="M179 710q0 22 16.5 38.5t37.5 16.5q22 0 38.5 -16.5t16.5 -38.5t-16.5 -38.5t-38.5 -16.5q-21 0 -37.5 16.5t-16.5 38.5zM350 710q0 22 16 38.5t37 16.5q22 0 38 -16.5t16 -38.5t-16 -38.5t-38 -16.5q-21 0 -37 16.5t-16 38.5zM317 -14q-115 0 -183 74.5t-68 193.5v346
h99v-346q0 -77 39.5 -125t112.5 -48q74 0 113 47.5t39 125.5v346h99v-346q0 -120 -67 -194t-184 -74z" />
    <glyph glyph-name="Yacute" unicode="&#xdd;" horiz-adv-x="537" 
d="M291 365l134 235h110l-217 -370v-230h-99v230l-217 370h111l134 -235l22 -49zM400 800l-99 -132h-67l52 145z" />
    <glyph glyph-name="Thorn" unicode="&#xde;" horiz-adv-x="581" 
d="M173 600v-94h152q109 0 170.5 -53.5t61.5 -150.5q0 -101 -64.5 -156t-173.5 -55h-146v-91h-99v600h99zM455 299q0 58 -37 88t-100 30h-145v-239h145q137 0 137 121z" />
    <glyph glyph-name="germandbls" unicode="&#xdf;" horiz-adv-x="498" 
d="M237 263v70q97 16 97 102q0 38 -22.5 62t-62.5 24t-65.5 -28t-25.5 -76v-417h-98v406q0 96 50 147.5t144 51.5q82 0 132.5 -48t50.5 -121q0 -89 -70 -125q46 -15 71 -55t25 -90q0 -80 -51 -127t-138 -47q-22 0 -39 2t-23 4l-6 2l6 68q22 -3 47 -3q50 0 79.5 27t29.5 71
q0 47 -29.5 73.5t-78.5 26.5h-23z" />
    <glyph glyph-name="agrave" unicode="&#xe0;" horiz-adv-x="464" 
d="M409 259v-259h-68l-12 55h-5q-40 -65 -139 -65q-73 0 -115 37.5t-42 95.5q0 64 49 101t142 37q50 0 96 -14v14q0 88 -109 88q-28 0 -56.5 -7.5t-42.5 -15.5l-14 -8l-34 74q61 38 162 38q93 0 140.5 -45.5t47.5 -125.5zM207 60q45 0 75.5 26.5t32.5 64.5v34q-32 16 -85 16
q-108 0 -108 -72q0 -30 23 -49.5t62 -19.5zM196 497l-91 134l113 17l45 -151h-67z" />
    <glyph glyph-name="aacute" unicode="&#xe1;" horiz-adv-x="464" 
d="M409 259v-259h-68l-12 55h-5q-40 -65 -139 -65q-73 0 -115 37.5t-42 95.5q0 64 49 101t142 37q50 0 96 -14v14q0 88 -109 88q-28 0 -56.5 -7.5t-42.5 -15.5l-14 -8l-34 74q61 38 162 38q93 0 140.5 -45.5t47.5 -125.5zM207 60q45 0 75.5 26.5t32.5 64.5v34q-32 16 -85 16
q-108 0 -108 -72q0 -30 23 -49.5t62 -19.5zM361 629l-99 -132h-67l52 145z" />
    <glyph glyph-name="acircumflex" unicode="&#xe2;" horiz-adv-x="464" 
d="M409 259v-259h-68l-12 55h-5q-40 -65 -139 -65q-73 0 -115 37.5t-42 95.5q0 64 49 101t142 37q50 0 96 -14v14q0 88 -109 88q-28 0 -56.5 -7.5t-42.5 -15.5l-14 -8l-34 74q61 38 162 38q93 0 140.5 -45.5t47.5 -125.5zM207 60q45 0 75.5 26.5t32.5 64.5v34q-32 16 -85 16
q-108 0 -108 -72q0 -30 23 -49.5t62 -19.5zM271 497l-49 62l-50 -62h-76l87 121h77l88 -121h-77z" />
    <glyph glyph-name="atilde" unicode="&#xe3;" horiz-adv-x="464" 
d="M409 259v-259h-68l-12 55h-5q-40 -65 -139 -65q-73 0 -115 37.5t-42 95.5q0 64 49 101t142 37q50 0 96 -14v14q0 88 -109 88q-28 0 -56.5 -7.5t-42.5 -15.5l-14 -8l-34 74q61 38 162 38q93 0 140.5 -45.5t47.5 -125.5zM207 60q45 0 75.5 26.5t32.5 64.5v34q-32 16 -85 16
q-108 0 -108 -72q0 -30 23 -49.5t62 -19.5zM296 488q-33 0 -76.5 25t-60.5 25q-28 0 -39 -36l-4 -16l-69 7l5 30q18 90 95 90q33 0 76 -25t61 -25q31 0 40 37l3 15l69 -6l-5 -30q-6 -41 -30 -66t-65 -25z" />
    <glyph glyph-name="adieresis" unicode="&#xe4;" horiz-adv-x="464" 
d="M409 259v-259h-68l-12 55h-5q-40 -65 -139 -65q-73 0 -115 37.5t-42 95.5q0 64 49 101t142 37q50 0 96 -14v14q0 88 -109 88q-28 0 -56.5 -7.5t-42.5 -15.5l-14 -8l-34 74q61 38 162 38q93 0 140.5 -45.5t47.5 -125.5zM207 60q45 0 75.5 26.5t32.5 64.5v34q-32 16 -85 16
q-108 0 -108 -72q0 -30 23 -49.5t62 -19.5zM84 539q0 22 16.5 38.5t37.5 16.5q22 0 38.5 -16.5t16.5 -38.5t-16.5 -38.5t-38.5 -16.5q-21 0 -37.5 16.5t-16.5 38.5zM255 539q0 22 16 38.5t37 16.5q22 0 38 -16.5t16 -38.5t-16 -38.5t-38 -16.5q-21 0 -37 16.5t-16 38.5z" />
    <glyph glyph-name="aring" unicode="&#xe5;" horiz-adv-x="464" 
d="M409 259v-259h-68l-12 55h-5q-40 -65 -139 -65q-73 0 -115 37.5t-42 95.5q0 64 49 101t142 37q50 0 96 -14v14q0 88 -109 88q-28 0 -56.5 -7.5t-42.5 -15.5l-14 -8l-34 74q61 38 162 38q93 0 140.5 -45.5t47.5 -125.5zM207 60q45 0 75.5 26.5t32.5 64.5v34q-32 16 -85 16
q-108 0 -108 -72q0 -30 23 -49.5t62 -19.5zM116 584q0 40 29.5 64t79.5 24q49 0 78 -24.5t29 -63.5q0 -40 -29 -64.5t-78 -24.5q-50 0 -79.5 24.5t-29.5 64.5zM275 584q0 39 -50 39q-52 0 -52 -39t52 -39q50 0 50 39z" />
    <glyph glyph-name="ae" unicode="&#xe6;" horiz-adv-x="740" 
d="M654 106l35 -66q-2 -2 -6 -5.5t-18 -12.5t-30 -15.5t-43 -12t-57 -5.5q-108 0 -169 69q-56 -68 -169 -68q-84 0 -127.5 37t-43.5 94q0 64 47 100.5t141 36.5q55 0 101 -14v15q0 91 -109 91q-28 0 -56 -8.5t-42 -17.5l-15 -8l-34 76q64 38 158 38q107 0 155 -62
q57 62 147 62t140.5 -57.5t50.5 -151.5l-1 -26h-298q4 -62 39 -94t91 -32q32 0 60 9.5t41 18.5zM206 60q51 0 80 28.5t29 70.5v22q-39 16 -92 16q-101 0 -101 -71q0 -30 21.5 -48t62.5 -18zM517 354q-86 0 -102 -94h198q-11 94 -96 94z" />
    <glyph glyph-name="ccedilla" unicode="&#xe7;" horiz-adv-x="409" 
d="M207 -73l-17 20l22 46q-81 11 -129.5 70.5t-48.5 145.5q0 97 60 159t156 62q40 0 72.5 -9t45.5 -19l12 -9l-27 -72q-39 28 -96 28q-54 0 -89 -38t-35 -102q0 -65 35 -101.5t89 -36.5q25 0 49 7t36 14l11 7l26 -71q-4 -4 -12.5 -10t-39 -16.5t-67.5 -11.5l-10 -25
q28 0 46 -17t18 -47q0 -33 -22 -53t-61 -20q-24 0 -44 7.5t-28 14.5l-8 8l24 36q28 -20 53 -20q38 0 38 29q0 27 -36 27z" />
    <glyph glyph-name="egrave" unicode="&#xe8;" horiz-adv-x="459" 
d="M373 105l35 -67q-5 -6 -16 -14t-51 -22t-87 -14q-101 0 -160.5 61.5t-59.5 159.5q0 96 56.5 158.5t147.5 62.5q90 0 140.5 -57.5t50.5 -151.5l-1 -26h-298q4 -62 38.5 -94.5t91.5 -32.5q32 0 60 9t40 19zM236 354q-86 0 -102 -94h197q-11 94 -95 94zM197 497l-91 134
l113 17l45 -151h-67z" />
    <glyph glyph-name="eacute" unicode="&#xe9;" horiz-adv-x="459" 
d="M370 629l-99 -132h-67l52 145zM373 105l35 -67q-5 -6 -16 -14t-51 -22t-87 -14q-101 0 -160.5 61.5t-59.5 159.5q0 96 56.5 158.5t147.5 62.5q90 0 140.5 -57.5t50.5 -151.5l-1 -26h-298q4 -62 38.5 -94.5t91.5 -32.5q32 0 60 9t40 19zM236 354q-86 0 -102 -94h197
q-11 94 -95 94z" />
    <glyph glyph-name="ecircumflex" unicode="&#xea;" horiz-adv-x="459" 
d="M286 496l-49 62l-50 -62h-76l87 121h77l88 -121h-77zM373 105l35 -67q-5 -6 -16 -14t-51 -22t-87 -14q-101 0 -160.5 61.5t-59.5 159.5q0 96 56.5 158.5t147.5 62.5q90 0 140.5 -57.5t50.5 -151.5l-1 -26h-298q4 -62 38.5 -94.5t91.5 -32.5q32 0 60 9t40 19zM236 354
q-86 0 -102 -94h197q-11 94 -95 94z" />
    <glyph glyph-name="edieresis" unicode="&#xeb;" horiz-adv-x="459" 
d="M98 539q0 22 16.5 38.5t37.5 16.5q22 0 38.5 -16.5t16.5 -38.5t-16.5 -38.5t-38.5 -16.5q-21 0 -37.5 16.5t-16.5 38.5zM269 539q0 22 16 38.5t37 16.5q22 0 38 -16.5t16 -38.5t-16 -38.5t-38 -16.5q-21 0 -37 16.5t-16 38.5zM373 105l35 -67q-5 -6 -16 -14t-51 -22
t-87 -14q-101 0 -160.5 61.5t-59.5 159.5q0 96 56.5 158.5t147.5 62.5q90 0 140.5 -57.5t50.5 -151.5l-1 -26h-298q4 -62 38.5 -94.5t91.5 -32.5q32 0 60 9t40 19zM236 354q-86 0 -102 -94h197q-11 94 -95 94z" />
    <glyph glyph-name="igrave" unicode="&#xec;" horiz-adv-x="221" 
d="M61 0v420h98v-420h-98zM72 497l-91 134l113 17l45 -151h-67z" />
    <glyph glyph-name="iacute" unicode="&#xed;" horiz-adv-x="221" 
d="M243 629l-99 -132h-67l52 145zM61 0v420h98v-420h-98z" />
    <glyph glyph-name="icircumflex" unicode="&#xee;" horiz-adv-x="221" 
d="M161 517l-49 62l-50 -62h-76l87 121h77l88 -121h-77zM61 0v420h98v-420h-98z" />
    <glyph glyph-name="idieresis" unicode="&#xef;" horiz-adv-x="221" 
d="M-26 571q0 22 16.5 38.5t37.5 16.5q22 0 38.5 -16.5t16.5 -38.5t-16.5 -38.5t-38.5 -16.5q-21 0 -37.5 16.5t-16.5 38.5zM145 571q0 22 16 38.5t37 16.5q22 0 38 -16.5t16 -38.5t-16 -38.5t-38 -16.5q-21 0 -37 16.5t-16 38.5zM61 0v420h98v-420h-98z" />
    <glyph glyph-name="eth" unicode="&#xf0;" horiz-adv-x="504" 
d="M252 -10q-100 0 -159 59.5t-59 159.5q0 98 59.5 159t158.5 61q20 0 38 -3v4q-15 18 -28 40l-37 59l-111 -68l-33 56l111 67l-81 133v11h94l60 -99l116 71l32 -55l-114 -70l118 -193q30 -50 41.5 -87t11.5 -86q0 -101 -59 -160t-159 -59zM371 210q0 65 -33 101.5t-86 36.5
t-86 -37t-33 -101q0 -65 33.5 -102.5t85.5 -37.5q53 0 86 37.5t33 102.5z" />
    <glyph glyph-name="ntilde" unicode="&#xf1;" horiz-adv-x="513" 
d="M60 0v420h64l12 -60h6q46 70 141 70q81 0 128 -51.5t47 -137.5v-241h-98v232q0 50 -26.5 82t-73.5 32q-46 0 -72.5 -29t-29.5 -66v-251h-98zM330 519q-33 0 -76.5 25t-60.5 25q-28 0 -39 -36l-4 -16l-69 7l5 30q18 90 95 90q33 0 76 -25t61 -25q31 0 40 37l3 15l69 -6
l-5 -30q-6 -41 -30 -66t-65 -25z" />
    <glyph glyph-name="ograve" unicode="&#xf2;" horiz-adv-x="499" 
d="M465 208q0 -98 -62 -158t-154 -60q-91 0 -153 60t-62 158q0 99 62 160.5t153 61.5t153.5 -62t62.5 -160zM249 68q52 0 86 38.5t34 102.5t-34.5 103.5t-85.5 39.5t-85.5 -39.5t-34.5 -103.5t34 -102.5t86 -38.5zM214 497l-91 134l113 17l45 -151h-67z" />
    <glyph glyph-name="oacute" unicode="&#xf3;" horiz-adv-x="499" 
d="M380 629l-99 -132h-67l52 145zM465 208q0 -98 -62 -158t-154 -60q-91 0 -153 60t-62 158q0 99 62 160.5t153 61.5t153.5 -62t62.5 -160zM249 68q52 0 86 38.5t34 102.5t-34.5 103.5t-85.5 39.5t-85.5 -39.5t-34.5 -103.5t34 -102.5t86 -38.5z" />
    <glyph glyph-name="ocircumflex" unicode="&#xf4;" horiz-adv-x="499" 
d="M300 517l-49 62l-50 -62h-76l87 121h77l88 -121h-77zM465 208q0 -98 -62 -158t-154 -60q-91 0 -153 60t-62 158q0 99 62 160.5t153 61.5t153.5 -62t62.5 -160zM249 68q52 0 86 38.5t34 102.5t-34.5 103.5t-85.5 39.5t-85.5 -39.5t-34.5 -103.5t34 -102.5t86 -38.5z" />
    <glyph glyph-name="otilde" unicode="&#xf5;" horiz-adv-x="499" 
d="M465 208q0 -98 -62 -158t-154 -60q-91 0 -153 60t-62 158q0 99 62 160.5t153 61.5t153.5 -62t62.5 -160zM249 68q52 0 86 38.5t34 102.5t-34.5 103.5t-85.5 39.5t-85.5 -39.5t-34.5 -103.5t34 -102.5t86 -38.5zM321 520q-33 0 -76.5 25t-60.5 25q-28 0 -39 -36l-4 -16
l-69 7l5 30q18 90 95 90q32 0 76 -25t61 -25q31 0 40 37l3 15l69 -6l-5 -30q-6 -41 -30 -66t-65 -25z" />
    <glyph glyph-name="odieresis" unicode="&#xf6;" horiz-adv-x="499" 
d="M111 572q0 22 16.5 38.5t37.5 16.5q22 0 38.5 -16.5t16.5 -38.5t-16.5 -38.5t-38.5 -16.5q-21 0 -37.5 16.5t-16.5 38.5zM282 572q0 22 16 38.5t37 16.5q22 0 38 -16.5t16 -38.5t-16 -38.5t-38 -16.5q-21 0 -37 16.5t-16 38.5zM465 208q0 -98 -62 -158t-154 -60
q-91 0 -153 60t-62 158q0 99 62 160.5t153 61.5t153.5 -62t62.5 -160zM249 68q52 0 86 38.5t34 102.5t-34.5 103.5t-85.5 39.5t-85.5 -39.5t-34.5 -103.5t34 -102.5t86 -38.5z" />
    <glyph glyph-name="divide" unicode="&#xf7;" horiz-adv-x="487" 
d="M180 134q0 27 18.5 45.5t44.5 18.5t44.5 -18.5t18.5 -45.5q0 -26 -18.5 -44t-44.5 -18t-44.5 18t-18.5 44zM180 463q0 26 18.5 44.5t44.5 18.5t44.5 -18.5t18.5 -44.5q0 -27 -18.5 -45t-44.5 -18t-44.5 18t-18.5 45zM49 256v80h389v-80h-389z" />
    <glyph glyph-name="oslash" unicode="&#xf8;" horiz-adv-x="500" 
d="M466 208q0 -98 -62 -158t-154 -60q-76 0 -132 41l-30 -31h-70l64 66q-47 58 -47 142q0 99 62 160.5t153 61.5q70 0 128 -40l28 30h70l-62 -64q52 -62 52 -148zM250 68q52 0 86 38.5t34 102.5q0 44 -20 81l-175 -195q31 -27 75 -27zM130 209q0 -44 17 -76l173 194
q-30 25 -70 25q-51 0 -85.5 -39.5t-34.5 -103.5z" />
    <glyph glyph-name="ugrave" unicode="&#xf9;" horiz-adv-x="510" 
d="M352 174v246h98v-420h-64l-17 58h-4q-46 -68 -138 -68q-81 0 -126.5 51.5t-45.5 137.5v241h98v-232q0 -52 24.5 -84t71.5 -32q49 0 76 32.5t27 69.5zM216 497l-91 134l113 17l45 -151h-67z" />
    <glyph glyph-name="uacute" unicode="&#xfa;" horiz-adv-x="510" 
d="M381 629l-99 -132h-67l52 145zM352 174v246h98v-420h-64l-17 58h-4q-46 -68 -138 -68q-81 0 -126.5 51.5t-45.5 137.5v241h98v-232q0 -52 24.5 -84t71.5 -32q49 0 76 32.5t27 69.5z" />
    <glyph glyph-name="ucircumflex" unicode="&#xfb;" horiz-adv-x="510" 
d="M298 496l-49 62l-50 -62h-76l87 121h77l88 -121h-77zM352 174v246h98v-420h-64l-17 58h-4q-46 -68 -138 -68q-81 0 -126.5 51.5t-45.5 137.5v241h98v-232q0 -52 24.5 -84t71.5 -32q49 0 76 32.5t27 69.5z" />
    <glyph glyph-name="udieresis" unicode="&#xfc;" horiz-adv-x="510" 
d="M110 552q0 22 16.5 38.5t37.5 16.5q22 0 38.5 -16.5t16.5 -38.5t-16.5 -38.5t-38.5 -16.5q-21 0 -37.5 16.5t-16.5 38.5zM281 552q0 22 16 38.5t37 16.5q22 0 38 -16.5t16 -38.5t-16 -38.5t-38 -16.5q-21 0 -37 16.5t-16 38.5zM352 174v246h98v-420h-64l-17 58h-4
q-46 -68 -138 -68q-81 0 -126.5 51.5t-45.5 137.5v241h98v-232q0 -52 24.5 -84t71.5 -32q49 0 76 32.5t27 69.5z" />
    <glyph glyph-name="yacute" unicode="&#xfd;" horiz-adv-x="455" 
d="M448 420l-249 -576h-102l86 184l-177 392h108l108 -273q7 -23 7 -31h5q0 14 7 31l107 273h100zM359 629l-99 -132h-67l52 145z" />
    <glyph glyph-name="thorn" unicode="&#xfe;" horiz-adv-x="522" 
d="M162 71h-4v-227h-98v756h98v-248h4q1 3 4 8.5t14 19t24.5 23.5t37.5 18.5t52 8.5q84 0 138.5 -60.5t54.5 -159.5q0 -97 -55 -158.5t-138 -61.5q-29 0 -53 8.5t-38 20t-24 23.5t-13 20zM154 210q0 -64 33.5 -101.5t84.5 -37.5t83.5 39t32.5 100t-33 100t-83 39
q-51 0 -84.5 -38t-33.5 -101z" />
    <glyph glyph-name="ydieresis" unicode="&#xff;" horiz-adv-x="455" 
d="M448 420l-249 -576h-102l86 184l-177 392h108l108 -273q7 -23 7 -31h5q0 14 7 31l107 273h100zM89 551q0 22 16.5 38.5t37.5 16.5q22 0 38.5 -16.5t16.5 -38.5t-16.5 -38.5t-38.5 -16.5q-21 0 -37.5 16.5t-16.5 38.5zM260 551q0 22 16 38.5t37 16.5q22 0 38 -16.5
t16 -38.5t-16 -38.5t-38 -16.5q-21 0 -37 16.5t-16 38.5z" />
    <glyph glyph-name="dotlessi" unicode="&#x131;" horiz-adv-x="221" 
d="M61 0v420h98v-420h-98z" />
    <glyph glyph-name="Lslash" unicode="&#x141;" horiz-adv-x="498" 
d="M16 216v94l62 38v252h99v-192l135 83v-94l-135 -83v-226h295v-88h-394v254z" />
    <glyph glyph-name="lslash" unicode="&#x142;" horiz-adv-x="239" 
d="M19 219v58l50 31v297h98v-237l57 36v-58l-57 -36v-310h-98v250z" />
    <glyph glyph-name="OE" unicode="&#x152;" horiz-adv-x="1022" 
d="M337 -14q-133 0 -216.5 90t-83.5 223q0 134 83.5 224t216.5 90t219 -92v79h427v-88h-328v-166h279v-84h-279v-174h328v-88h-427v77q-86 -91 -219 -91zM337 82q88 0 144 62t56 155q0 94 -56 156.5t-144 62.5q-87 0 -142.5 -62.5t-55.5 -156.5q0 -93 55.5 -155t142.5 -62z
" />
    <glyph glyph-name="oe" unicode="&#x153;" horiz-adv-x="812" 
d="M728 105l35 -67q-5 -6 -16 -14t-51 -22t-87 -14q-123 0 -183 89q-62 -87 -177 -87q-91 0 -153 60t-62 158q0 99 62 160.5t153 61.5q54 0 100.5 -23.5t75.5 -65.5q57 89 168 89q90 0 140.5 -57.5t50.5 -151.5l-1 -26h-298q4 -62 38.5 -94.5t91.5 -32.5q32 0 60 9t41 19z
M249 68q52 0 86 38.5t34 102.5t-34.5 103.5t-85.5 39.5t-85.5 -39.5t-34.5 -103.5t34 -102.5t86 -38.5zM591 354q-86 0 -102 -94h197q-11 94 -95 94z" />
    <glyph glyph-name="Scaron" unicode="&#x160;" horiz-adv-x="518" 
d="M207 777l49 -62l50 62h76l-79 -109h-92l-81 109h77zM35 61l54 75q8 -6 22.5 -16t59 -26t88.5 -16q59 0 87.5 22.5t28.5 60.5q0 35 -28 56.5t-108 45.5q-105 31 -152 71t-47 108q0 79 57.5 125t162.5 46q66 0 118.5 -15.5t71.5 -30.5l19 -15l-54 -81q-6 6 -18.5 14
t-52.5 22t-84 14q-52 0 -81.5 -19.5t-29.5 -55.5q0 -30 28 -49t105 -42q109 -31 156 -74t47 -113q0 -80 -57.5 -131t-165.5 -51q-43 0 -82.5 7.5t-64.5 19t-44 22.5t-27 19z" />
    <glyph glyph-name="scaron" unicode="&#x161;" horiz-adv-x="418" 
d="M160 606l49 -62l50 62h76l-79 -109h-92l-81 109h77zM34 39l35 67q61 -41 139 -41t78 48q0 18 -18.5 31t-46.5 19.5t-60 17t-60 23.5t-46.5 39t-18.5 63q0 55 42 89.5t121 34.5q51 0 94.5 -9t62.5 -18l18 -9l-33 -76q-54 36 -132 36q-76 0 -76 -45q0 -17 18.5 -29
t46.5 -18t61 -16t61 -23t46.5 -40t18.5 -65q0 -56 -43 -92t-131 -36q-55 0 -99 12t-61 24z" />
    <glyph glyph-name="Ydieresis" unicode="&#x178;" horiz-adv-x="537" 
d="M291 365l134 235h110l-217 -370v-230h-99v230l-217 370h111l134 -235l22 -49zM131 710q0 22 16.5 38.5t37.5 16.5q22 0 38.5 -16.5t16.5 -38.5t-16.5 -38.5t-38.5 -16.5q-21 0 -37.5 16.5t-16.5 38.5zM302 710q0 22 16 38.5t37 16.5q22 0 38 -16.5t16 -38.5t-16 -38.5
t-38 -16.5q-21 0 -37 16.5t-16 38.5z" />
    <glyph glyph-name="Zcaron" unicode="&#x17d;" horiz-adv-x="534" 
d="M213 777l49 -62l50 62h76l-79 -109h-92l-81 109h77zM30 0v71l339 441h-328v88h460v-73l-333 -439h328v-88h-466z" />
    <glyph glyph-name="zcaron" unicode="&#x17e;" horiz-adv-x="425" 
d="M161 606l49 -62l50 62h76l-79 -109h-92l-81 109h77zM390 0h-356v53l229 288h-227v79h354v-48l-223 -293h223v-79z" />
    <glyph glyph-name="florin" unicode="&#x192;" horiz-adv-x="530" 
d="M171 131l43 212h-77v77h93l5 24q34 163 189 163q26 0 50 -4.5t34 -9.5l11 -5l-40 -82q-23 13 -58 13q-74 0 -88 -74l-5 -25h137v-77h-153l-46 -230q-12 -59 -41.5 -88t-91.5 -29q-25 0 -48 6t-34 12l-11 7l31 76q22 -14 48 -14q23 0 35 11t17 37z" />
    <glyph glyph-name="circumflex" unicode="&#x2c6;" horiz-adv-x="371" 
d="M241 655l-49 62l-50 -62h-76l87 121h77l88 -121h-77z" />
    <glyph glyph-name="caron" unicode="&#x2c7;" horiz-adv-x="325" 
d="M111 777l49 -62l50 62h76l-79 -109h-92l-81 109h77z" />
    <glyph glyph-name="breve" unicode="&#x2d8;" horiz-adv-x="396" 
d="M267 813h78q0 -61 -40.5 -104.5t-105.5 -43.5q-66 0 -106 43t-40 105h77q0 -34 19 -55.5t50 -21.5q29 0 48.5 21.5t19.5 55.5z" />
    <glyph glyph-name="dotaccent" unicode="&#x2d9;" horiz-adv-x="331" 
d="M166 550q-28 0 -47.5 19t-19.5 48t19.5 48.5t47.5 19.5t48 -19.5t20 -48.5q0 -28 -19.5 -47.5t-48.5 -19.5z" />
    <glyph glyph-name="ring" unicode="&#x2da;" horiz-adv-x="288" 
d="M36 704q0 40 29.5 64t79.5 24q49 0 78 -24.5t29 -63.5q0 -40 -29 -64.5t-78 -24.5q-50 0 -79.5 24.5t-29.5 64.5zM195 704q0 39 -50 39q-52 0 -52 -39t52 -39q50 0 50 39z" />
    <glyph glyph-name="ogonek" unicode="&#x2db;" horiz-adv-x="195" 
d="M148 -73l28 -36q-23 -30 -70 -30q-37 0 -58 20t-21 53q0 27 19 49t37 31.5t37 15.5l10 -30q-46 -26 -46 -55q0 -32 32 -32q18 0 32 14z" />
    <glyph glyph-name="tilde" unicode="&#x2dc;" horiz-adv-x="485" 
d="M313 657q-33 0 -76.5 25t-60.5 25q-28 0 -39 -36l-4 -16l-69 7l5 30q18 90 95 90q32 0 76 -25t61 -25q31 0 40 37l3 15l69 -6l-5 -30q-6 -41 -30 -66t-65 -25z" />
    <glyph glyph-name="hungarumlaut" unicode="&#x2dd;" horiz-adv-x="395" 
d="M344 577l-80 -158h-65l39 158h106zM181 577l-80 -158h-65l39 158h106z" />
    <glyph glyph-name="pi" unicode="&#x3c0;" horiz-adv-x="527" 
d="M27 420h473v-79h-66v-341h-98v341h-145v-341h-98v341h-66v79z" />
    <glyph glyph-name="endash" unicode="&#x2013;" horiz-adv-x="458" 
d="M59 247v81h335v-81h-335z" />
    <glyph glyph-name="emdash" unicode="&#x2014;" horiz-adv-x="711" 
d="M59 247v81h588v-81h-588z" />
    <glyph glyph-name="quoteleft" unicode="&#x2018;" horiz-adv-x="220" 
d="M41 428v7q0 63 34.5 108t95.5 57l15 -53q-64 -15 -72 -61q20 -5 33.5 -21t13.5 -37q0 -26 -17.5 -43t-42.5 -17t-42.5 17.5t-17.5 42.5z" />
    <glyph glyph-name="quoteright" unicode="&#x2019;" horiz-adv-x="222" 
d="M188 540v-7q0 -63 -34 -108t-96 -57l-15 53q64 14 72 61q-21 4 -34 20t-13 38q0 25 17.5 42.5t42.5 17.5t42.5 -17.5t17.5 -42.5z" />
    <glyph glyph-name="quotesinglbase" unicode="&#x201a;" horiz-adv-x="213" 
d="M165 49v-7q0 -63 -34.5 -108t-95.5 -57l-15 53q65 16 73 61q-21 5 -34.5 20.5t-13.5 37.5q0 25 17.5 42.5t42.5 17.5t42.5 -17.5t17.5 -42.5z" />
    <glyph glyph-name="quotedblleft" unicode="&#x201c;" horiz-adv-x="386" 
d="M207 428v7q0 63 34.5 108t95.5 57l15 -53q-64 -15 -72 -61q20 -5 33.5 -21t13.5 -37q0 -26 -17.5 -43t-42.5 -17t-42.5 17.5t-17.5 42.5zM41 428v7q0 63 34.5 108t95.5 57l15 -53q-64 -15 -72 -61q20 -5 33.5 -21t13.5 -37q0 -26 -17.5 -43t-42.5 -17t-42.5 17.5
t-17.5 42.5z" />
    <glyph glyph-name="quotedblright" unicode="&#x201d;" horiz-adv-x="382" 
d="M348 540v-7q0 -63 -34 -108t-96 -57l-15 53q64 14 72 61q-21 4 -34 20t-13 38q0 25 17.5 42.5t42.5 17.5t42.5 -17.5t17.5 -42.5zM187 540v-7q0 -63 -34 -108t-95 -57l-16 53q65 14 73 61q-21 4 -34.5 20t-13.5 38q0 25 17.5 42.5t42.5 17.5t42.5 -17.5t17.5 -42.5z" />
    <glyph glyph-name="quotedblbase" unicode="&#x201e;" horiz-adv-x="450" 
d="M165 49v-7q0 -63 -34.5 -108t-95.5 -57l-15 53q65 16 73 61q-21 5 -34.5 20.5t-13.5 37.5q0 25 17.5 42.5t42.5 17.5t42.5 -17.5t17.5 -42.5zM403 49v-7q0 -63 -34.5 -108t-95.5 -57l-15 53q65 16 73 61q-21 5 -34.5 20.5t-13.5 37.5q0 25 17.5 42.5t42.5 17.5
t42.5 -17.5t17.5 -42.5z" />
    <glyph glyph-name="dagger" unicode="&#x2020;" horiz-adv-x="410" 
d="M32 420v80h133v135h82v-135h131v-80h-131l-8 -256h-66l-8 256h-133z" />
    <glyph glyph-name="daggerdbl" unicode="&#x2021;" horiz-adv-x="441" 
d="M49 453v80h133v135h82v-135h131v-80h-131l-7 -119l7 -119h131v-80h-131v-135h-82v135h-133v80h133l6 119l-6 119h-133z" />
    <glyph glyph-name="bullet" unicode="&#x2022;" horiz-adv-x="319" 
d="M159 308q35 0 60.5 -25t25.5 -60t-25.5 -59.5t-60.5 -24.5t-60 24.5t-25 59.5t25 60t60 25z" />
    <glyph glyph-name="ellipsis" unicode="&#x2026;" horiz-adv-x="732" 
d="M48 58q0 29 20 49t48 20t48 -20t20 -49q0 -28 -19.5 -47.5t-48.5 -19.5t-48.5 19.5t-19.5 47.5zM298 58q0 29 19.5 49t47.5 20q29 0 49 -20.5t20 -48.5t-20 -47.5t-49 -19.5q-28 0 -47.5 19.5t-19.5 47.5zM547 58q0 29 20 49t48 20t48 -20t20 -49q0 -28 -19.5 -47.5
t-48.5 -19.5t-48.5 19.5t-19.5 47.5z" />
    <glyph glyph-name="perthousand" unicode="&#x2030;" horiz-adv-x="967" 
d="M171 613q61 0 97 -43.5t36 -105.5t-36 -106t-97 -44t-97 44t-36 106t36 105.5t97 43.5zM171 379q29 0 44 22.5t15 62.5t-15 62.5t-44 22.5t-44 -22.5t-15 -62.5t15 -62.5t44 -22.5zM521 600h92l-477 -600h-91zM492 291q61 0 97.5 -43.5t36.5 -106.5q0 -62 -36.5 -105.5
t-97.5 -43.5t-97 44t-36 105q0 63 36 106.5t97 43.5zM492 227q-28 0 -43.5 -23t-15.5 -63q0 -38 15.5 -61t43.5 -23q29 0 44 22.5t15 61.5q0 86 -59 86zM804 227q-29 0 -44.5 -23t-15.5 -63q0 -38 15.5 -61t44.5 -23q28 0 43 23t15 61q0 40 -15 63t-43 23zM804 291
q61 0 97 -43.5t36 -106.5q0 -61 -36 -105t-97 -44t-97.5 43.5t-36.5 105.5q0 63 36.5 106.5t97.5 43.5z" />
    <glyph glyph-name="guilsinglleft" unicode="&#x2039;" horiz-adv-x="280" 
d="M36 197v22l124 189h83v-10l-120 -186v-6l120 -188v-10h-83z" />
    <glyph glyph-name="guilsinglright" unicode="&#x203a;" horiz-adv-x="280" 
d="M244 219v-22l-124 -189h-83v10l121 188v6l-121 186v10h83z" />
    <glyph glyph-name="fraction" unicode="&#x2044;" horiz-adv-x="576" 
d="M70 0h-81l517 661h81z" />
    <glyph glyph-name="Euro" unicode="&#x20ac;" horiz-adv-x="578" 
d="M401 267v-71h-181q34 -115 150 -115q33 0 62.5 13.5t41.5 26.5l13 13l53 -74q-2 -3 -6.5 -8t-20 -17t-33.5 -21.5t-48 -17.5t-63 -8q-101 0 -165.5 57t-88.5 151h-78v71h67q-1 11 -1 34q0 25 1 38h-67v71h79q25 92 89 147.5t164 55.5q52 0 94.5 -18t59.5 -36l17 -18
l-53 -76q-5 6 -14 15t-39.5 23.5t-63.5 14.5q-113 0 -149 -108h180v-71h-194q-1 -13 -1 -38q0 -23 1 -34h194z" />
    <glyph glyph-name="trademark" unicode="&#x2122;" horiz-adv-x="718" 
d="M403 281h-65v319h46l110 -144l114 144h44v-319h-65v196l-80 -104h-24l-80 104v-196zM283 600v-57h-93v-262h-64v262h-93v57h250z" />
    <glyph glyph-name="Omega" unicode="&#x2126;" horiz-adv-x="716" 
d="M49 0v86h122q-58 37 -89 97.5t-31 129.5q0 126 82.5 213t224.5 87t225 -87t83 -213q0 -68 -31.5 -129t-89.5 -98h122v-86h-274v89q74 7 124 69.5t50 145.5q0 91 -58 152.5t-151 61.5t-150.5 -61.5t-57.5 -152.5q0 -83 50 -145.5t123 -69.5v-89h-274z" />
    <glyph glyph-name="partialdiff" unicode="&#x2202;" horiz-adv-x="505" 
d="M252 -10q-100 0 -159 59.5t-59 159.5q0 98 59.5 159t158.5 61q20 0 38 -3v4q-15 18 -28 40l-151 247v11h94l212 -346q30 -50 41.5 -87t11.5 -86q0 -101 -59 -160t-159 -59zM371 210q0 65 -33 101.5t-86 36.5t-86 -37t-33 -101q0 -65 33.5 -102.5t85.5 -37.5q53 0 86 37.5
t33 102.5z" />
    <glyph glyph-name="Delta" unicode="&#x2206;" horiz-adv-x="640" 
d="M26 0v18l285 582h18l286 -582v-18h-589zM473 86l-151 338h-5l-151 -338h307z" />
    <glyph glyph-name="product" unicode="&#x220f;" horiz-adv-x="626" 
d="M563 600v-600h-99v514h-302v-514h-99v600h500z" />
    <glyph glyph-name="summation" unicode="&#x2211;" horiz-adv-x="449" 
d="M45 600h360v-86h-236l149 -191v-49l-145 -188h232v-86h-360v86l167 206v13l-167 209v86z" />
    <glyph glyph-name="minus" unicode="&#x2212;" horiz-adv-x="549" 
d="M58 258v81h434v-81h-434z" />
    <glyph glyph-name="radical" unicode="&#x221a;" horiz-adv-x="614" 
d="M625 600l-397 -792h-21l-204 399h110l71 -150q29 -68 30 -78h10q1 7 12.5 36.5t17.5 41.5l259 543h112z" />
    <glyph glyph-name="infinity" unicode="&#x221e;" horiz-adv-x="757" 
d="M210 115q-74 0 -120.5 50t-46.5 120t46.5 120.5t120.5 50.5q53 0 92.5 -30.5t77.5 -84.5q77 115 167 115q69 0 118 -48t49 -123q0 -70 -46 -120t-121 -50q-91 0 -170 113q-36 -53 -75 -83t-92 -30zM542 379q-60 0 -118 -92q30 -46 57 -70.5t61 -24.5q41 0 65.5 27
t24.5 66q0 40 -26 67t-64 27zM216 192q60 0 117 92q-30 46 -56.5 70.5t-60.5 24.5q-41 0 -65.5 -28t-24.5 -66q0 -39 24 -66t66 -27z" />
    <glyph glyph-name="integral" unicode="&#x222b;" horiz-adv-x="318" 
d="M110 21v503q0 125 114 125q22 0 42 -5.5t29 -11.5l9 -5l-26 -73q-17 9 -35 9q-34 0 -34 -49v-503q0 -125 -114 -125q-22 0 -42 5.5t-29 10.5l-9 6l27 73q17 -9 34 -9q34 0 34 49z" />
    <glyph glyph-name="approxequal" unicode="&#x2248;" horiz-adv-x="498" 
d="M328 163q-35 0 -80 21.5t-61 21.5q-28 0 -38 -31l-4 -14l-85 6l7 38q8 38 34.5 61t71.5 23q35 0 79.5 -21.5t61.5 -21.5q28 0 38 31l4 14l84 -6l-6 -39q-18 -83 -106 -83zM328 357q-35 0 -80 21.5t-61 21.5q-28 0 -38 -31l-4 -14l-85 6l7 39q18 83 106 83
q35 0 79.5 -21.5t61.5 -21.5q28 0 38 31l4 14l84 -6l-6 -38q-18 -84 -106 -84z" />
    <glyph glyph-name="notequal" unicode="&#x2260;" horiz-adv-x="474" 
d="M52 349v80h195l43 114l68 -24l-34 -90h98v-80h-127l-48 -129h175v-80h-204l-41 -111l-68 24l32 87h-89v80h118l48 129h-166z" />
    <glyph glyph-name="lessequal" unicode="&#x2264;" horiz-adv-x="388" 
d="M309 258l-57 -59l-192 183v19l192 188l58 -60l-143 -138zM343 145v-81h-292v81h292z" />
    <glyph glyph-name="greaterequal" unicode="&#x2265;" horiz-adv-x="388" 
d="M137 199l-58 59l142 133l-143 138l58 60l192 -188v-19zM46 64v81h291v-81h-291z" />
    <glyph glyph-name="lozenge" unicode="&#x25ca;" horiz-adv-x="470" 
d="M269 600l170 -300l-170 -300h-68l-169 300l169 300h68zM142 299l86 -166h14l86 166l-86 168h-14z" />
    </font>
</defs>
</svg>
